<svg width="1024" height="1024" xmlns="http://www.w3.org/2000/svg" class="icon">
 <defs>
  <style type="text/css"/>
 </defs>
 <g>
  <title>background</title>
  <rect fill="none" id="canvas_background" height="402" width="582" y="-1" x="-1"/>
 </g>
 <g>
  <title>Layer 1</title>
  <path id="svg_1" fill="#d81e06" d="m128,241.067l384,-136.534l392.533,134.4l-64,503.467l-328.533,181.333l-324.267,-179.2l-59.733,-503.466z"/>
  <path id="svg_2" fill="#d81e06" d="m128,241.067l384,-136.534l0,819.2l-324.267,-179.2l-59.733,-503.466z"/>
  <path id="svg_3" fill="#d81e06" d="m512,104.533l392.533,134.4l-64,503.467l-328.533,181.333l0,-819.2z"/>
  <path id="svg_4" fill="#d81e06" d="m512,196.267l249.6,533.333l-85.333,0l-53.334,-121.6l-110.933,0l0,-72.533l81.067,0l-81.067,-167.68l-68.267,167.68l68.267,0l0,72.533l-101.547,0l-47.786,121.6l-91.734,0l241.067,-533.333z"/>
  <defs>
   <style type="text/css"/>
  </defs>
  <defs>
   <style type="text/css"/>
  </defs>
  <g stroke="null" id="svg_14">
   <path stroke="null" id="svg_13" fill="#ffffff" d="m364.743341,371.626917l-11.236649,22.876581l-23.596962,0c-22.473297,0 -24.720626,1.270921 -24.720626,6.354606c0,6.354606 6.741989,10.16737 22.473297,12.709212c11.236648,1.270921 13.483978,2.541842 12.360313,6.354606c-3.370995,10.16737 -30.338951,48.295005 -47.193924,68.629744c-11.236648,10.16737 -19.102303,20.334739 -19.102302,21.60566c0,1.270921 3.370995,1.270921 6.741989,1.270921c7.865654,0 24.720627,-7.625527 34.83361,-17.792897c7.865654,-6.354606 7.865654,-6.354606 10.112983,-2.541842c1.123665,2.541843 0,13.980133 -2.24733,24.147502s-5.618324,29.231187 -7.865654,41.940399c-3.370995,19.063818 -11.236648,49.565926 -19.102303,68.629743c-2.24733,5.083685 -1.123664,5.083685 7.865654,3.812764c19.102303,-2.541842 33.709946,-17.792897 37.08094,-40.669478c3.370995,-17.792897 16.854973,-48.295005 28.091621,-61.004217c15.731308,-20.334738 47.193924,-34.314871 73.038216,-34.314871c7.865654,0 7.865654,0 7.865654,10.16737l0,10.16737l-19.102303,3.812764c-12.360314,1.270921 -24.720627,3.812764 -31.462616,7.625527c-33.709946,16.521975 -33.709946,64.81698 -1.123665,86.42264c13.483978,8.896448 25.844292,12.709212 52.812248,16.521976l15.731308,2.541842l2.24733,-10.167369c1.123665,-6.354606 3.370995,-17.792897 4.494659,-25.418424c1.123664,-15.251054 2.24733,-15.251054 8.989319,-15.251054c4.494659,0 14.607643,6.354606 24.720626,11.438291c20.225967,13.980133 53.935913,27.960266 79.780205,35.585793c26.967957,7.625527 71.91455,10.16737 101.129837,3.812764c37.08094,-7.625527 71.914551,-29.231187 71.914551,-45.753162c0,-3.812764 -3.370995,-2.541842 -20.225967,6.354606c-28.091621,16.521975 -50.564918,21.60566 -86.522194,19.063818c-21.349632,-1.270921 -34.83361,-3.812764 -50.564918,-8.896448c-24.720626,-7.625527 -56.183243,-24.147502 -58.430572,-30.502108c-1.123665,-2.541842 2.24733,-7.625527 5.618324,-13.980133c11.236648,-15.251054 13.483978,-43.21132 3.370995,-58.462374c-4.494659,-7.625527 -23.596962,-25.418424 -26.967957,-25.418424c-3.370994,0 -6.741989,10.16737 -7.865654,25.418424c-1.123665,11.438291 -1.123665,12.709212 4.49466,15.251054c6.741989,2.541842 19.102303,17.792897 19.102302,24.147502c0,7.625527 -6.741989,16.521975 -13.483978,16.521975c-5.618324,0 -34.83361,-16.521975 -41.5756,-22.876581c-3.370994,-2.541842 -3.370994,-6.354606 -1.123664,-19.063817c4.494659,-22.876581 3.370995,-55.920532 -1.123665,-63.546059c-2.24733,-3.812763 -8.989319,-8.896448 -15.731307,-12.709212c-10.112984,-6.354606 -14.607643,-6.354606 -39.32827,-6.354605c-14.607643,0 -35.957275,2.541842 -47.193924,3.812764c-11.236648,2.541842 -20.225967,3.812764 -21.349632,3.812764c-3.370995,0 0,-8.896448 6.741989,-16.521976c8.989319,-12.709212 15.731308,-15.251054 60.677902,-17.792896c49.441254,-2.541843 77.532875,-8.896448 74.16188,-15.251054c-1.123665,-1.270921 -22.473297,-2.541842 -48.317589,-2.541842c-66.296227,0 -62.925232,1.270921 -62.925231,-5.083685c0,-2.541842 1.123665,-7.625527 3.370995,-11.438291c4.494659,-7.625527 3.370995,-10.16737 -11.236649,-17.792897l-8.989319,-2.541842l-10.112983,22.876581zm84.274864,86.42264c3.370995,2.541842 4.494659,6.354606 4.494659,6.354606c0,1.270921 -10.112984,3.812764 -22.473297,6.354606c-21.349632,5.083685 -40.451935,13.980133 -61.801567,27.960266l-10.112984,7.625527l1.123665,-17.792897c1.123665,-19.063818 3.370995,-21.60566 25.844292,-31.773029c17.978638,-6.354606 55.059578,-6.354606 62.925232,1.270921zm-8.989319,96.590009c5.618324,7.625527 -3.370995,50.836847 -10.112984,50.836848c-10.112984,0 -25.844292,-20.334739 -25.844292,-33.043951c0,-6.354606 6.741989,-15.251054 13.483978,-19.063818c6.741989,-3.812764 19.102303,-3.812764 22.473297,1.270921zm248.329933,-194.45094c-2.24733,3.812764 -8.989319,13.980133 -15.731308,21.60566c-17.978637,22.876581 -24.720626,20.334738 -26.967957,-6.354606c-1.123664,-8.896448 -2.24733,-16.521975 -2.24733,-17.792896c-1.123665,-1.270921 -6.741989,0 -13.483978,3.812764l-11.236648,5.083685l1.123664,15.251054l1.123665,15.251054l-11.236649,2.541842c-6.741989,1.270921 -15.731308,1.270921 -20.225967,1.270921c-10.112984,0 -14.607643,5.083685 -8.989319,12.709212c2.24733,3.812764 8.989319,3.812764 30.338951,3.812764c14.607643,0 28.091621,1.270921 30.338951,2.541842c6.741989,5.083685 -1.123665,11.438291 -23.596962,20.334739c-12.360314,3.812764 -22.473297,8.896448 -23.596962,11.438291c-1.123665,1.270921 -6.741989,27.960266 -11.236649,59.733295c-7.865654,45.753162 -7.865654,57.191453 -5.618324,61.004217c4.494659,5.083684 38.204605,17.792897 60.677902,21.60566c26.967957,3.812764 66.296227,-1.270921 70.790886,-10.16737c2.24733,-3.812763 6.741989,-26.689344 11.236648,-52.107768c11.236648,-68.629743 11.236648,-64.81698 2.24733,-76.25527c-10.112984,-13.980133 -15.731308,-16.521975 -33.709946,-17.792896c-12.360314,-1.270921 -15.731308,-2.541843 -16.854973,-6.354606c-1.123665,-7.625527 10.112983,-12.709211 40.451935,-17.792897c31.462616,-3.812764 47.193924,-10.16737 44.946594,-15.251054c-1.123665,-2.541842 -6.741989,-3.812764 -22.473297,-2.541842c-19.102303,1.270921 -22.473297,0 -23.596962,-3.812764c-1.123665,-2.541842 1.123664,-7.625527 6.741989,-13.980133l7.865654,-10.16737l-13.483978,-6.354605c-7.865654,-3.812764 -13.483978,-6.354606 -14.607643,-6.354606c-4.494659,-1.270921 -6.741989,1.270921 -8.989319,5.083684zm-21.349632,88.964483c22.473297,5.083685 25.844292,21.60566 3.370995,21.60566c-5.618324,0 -20.225967,2.541842 -32.58628,6.354606c-12.360314,3.812764 -22.473297,6.354606 -23.596962,5.083685c-3.370995,-3.812764 -1.123665,-17.792897 4.494659,-22.876581c3.370995,-2.541842 5.618324,-5.083685 6.741989,-5.083685c1.123664,0 6.741989,-2.541842 13.483978,-3.812764c16.854973,-3.812764 14.607643,-3.812764 28.091621,-1.270921zm17.978638,50.836847c6.741989,7.625527 -2.24733,12.709212 -24.720627,15.251054c-11.236648,1.270921 -26.967957,5.083685 -33.709946,7.625527c-16.854973,6.354606 -17.978637,6.354606 -17.978637,0c0,-8.896448 12.360314,-21.60566 24.720626,-26.689345c14.607643,-3.812764 46.070259,-2.541842 51.688584,3.812764zm-7.865654,48.295005c1.123665,11.438291 -2.24733,15.251054 -13.483978,17.792896c-14.607643,3.812764 -60.677902,-2.541842 -60.677902,-7.625527c0,-3.812764 7.865654,-10.16737 16.854973,-15.251054c5.618325,-2.541842 14.607643,-3.812764 32.586281,-3.812764l23.596962,0l1.123665,8.896449zm-143.829101,-127.092118c-1.123664,8.896448 -2.24733,16.521975 -2.24733,19.063818s7.865654,10.16737 17.978638,17.792897l16.854973,13.980133l0,-8.896448c2.24733,-19.063818 -6.741989,-38.127635 -23.596962,-50.836847l-6.741989,-5.083684l-2.24733,13.980132z"/>
  </g>
 </g>
</svg>